<mxfile host="app.diagrams.net" modified="2022-05-17T16:17:21.104Z" agent="5.0 (Macintosh; Intel Mac OS X 10_15_7) AppleWebKit/537.36 (KHTML, like Gecko) Chrome/91.0.4472.114 Safari/537.36" etag="oPxRKoeOhKCg7u4Et4C7" version="18.0.1" type="github">
  <diagram id="hWNafZOtgDDPXVln5Tpz" name="Page-1">
    <mxGraphModel dx="1577" dy="928" grid="1" gridSize="10" guides="1" tooltips="1" connect="1" arrows="1" fold="1" page="1" pageScale="1" pageWidth="2339" pageHeight="3300" math="0" shadow="0">
      <root>
        <mxCell id="0" />
        <mxCell id="1" parent="0" />
        <mxCell id="azKWT2akUbq9BDtlPxRI-23" value="" style="rounded=0;whiteSpace=wrap;html=1;dashed=1;" vertex="1" parent="1">
          <mxGeometry x="1360" y="510" width="300" height="210" as="geometry" />
        </mxCell>
        <mxCell id="LKuy4wLW6eELK773XFHh-19" value="" style="rounded=0;whiteSpace=wrap;html=1;dashed=1;" parent="1" vertex="1">
          <mxGeometry x="320" y="60" width="590" height="210" as="geometry" />
        </mxCell>
        <mxCell id="LKuy4wLW6eELK773XFHh-21" value="" style="rounded=0;whiteSpace=wrap;html=1;dashed=1;" parent="1" vertex="1">
          <mxGeometry x="430" y="90" width="360" height="110" as="geometry" />
        </mxCell>
        <mxCell id="LKuy4wLW6eELK773XFHh-1" value="" style="rounded=0;whiteSpace=wrap;html=1;dashed=1;" parent="1" vertex="1">
          <mxGeometry x="100" y="60" width="170" height="210" as="geometry" />
        </mxCell>
        <mxCell id="LKuy4wLW6eELK773XFHh-2" value="&lt;font style=&quot;font-size: 18px&quot;&gt;上游数据&lt;/font&gt;" style="text;html=1;strokeColor=none;fillColor=none;align=center;verticalAlign=middle;whiteSpace=wrap;rounded=0;dashed=1;" parent="1" vertex="1">
          <mxGeometry x="162.5" y="40" width="87.5" height="20" as="geometry" />
        </mxCell>
        <mxCell id="LKuy4wLW6eELK773XFHh-13" style="edgeStyle=orthogonalEdgeStyle;rounded=0;orthogonalLoop=1;jettySize=auto;html=1;entryX=0;entryY=0.5;entryDx=0;entryDy=0;" parent="1" source="LKuy4wLW6eELK773XFHh-4" target="LKuy4wLW6eELK773XFHh-8" edge="1">
          <mxGeometry relative="1" as="geometry" />
        </mxCell>
        <mxCell id="LKuy4wLW6eELK773XFHh-4" value="&lt;ul&gt;&lt;li&gt;网页vip库&lt;/li&gt;&lt;li&gt;网页SE库&lt;/li&gt;&lt;li&gt;rts库&lt;/li&gt;&lt;li&gt;网页H5&lt;/li&gt;&lt;/ul&gt;" style="rounded=0;whiteSpace=wrap;html=1;align=left;" parent="1" vertex="1">
          <mxGeometry x="140" y="80" width="105" height="70" as="geometry" />
        </mxCell>
        <mxCell id="LKuy4wLW6eELK773XFHh-14" style="edgeStyle=orthogonalEdgeStyle;rounded=0;orthogonalLoop=1;jettySize=auto;html=1;entryX=0.5;entryY=1;entryDx=0;entryDy=0;" parent="1" source="LKuy4wLW6eELK773XFHh-5" target="LKuy4wLW6eELK773XFHh-9" edge="1">
          <mxGeometry relative="1" as="geometry" />
        </mxCell>
        <mxCell id="LKuy4wLW6eELK773XFHh-5" value="&lt;ul&gt;&lt;li&gt;百家号&lt;/li&gt;&lt;li&gt;文库、百科等自有产品&lt;/li&gt;&lt;/ul&gt;" style="rounded=0;whiteSpace=wrap;html=1;align=left;" parent="1" vertex="1">
          <mxGeometry x="140" y="170" width="110" height="70" as="geometry" />
        </mxCell>
        <mxCell id="LKuy4wLW6eELK773XFHh-6" value="已有数据库" style="text;html=1;strokeColor=none;fillColor=none;align=center;verticalAlign=middle;whiteSpace=wrap;rounded=0;" parent="1" vertex="1">
          <mxGeometry x="110" y="100" width="20" height="30" as="geometry" />
        </mxCell>
        <mxCell id="LKuy4wLW6eELK773XFHh-7" value="结构化数据" style="text;html=1;strokeColor=none;fillColor=none;align=center;verticalAlign=middle;whiteSpace=wrap;rounded=0;" parent="1" vertex="1">
          <mxGeometry x="110" y="190" width="20" height="30" as="geometry" />
        </mxCell>
        <mxCell id="LKuy4wLW6eELK773XFHh-15" style="edgeStyle=orthogonalEdgeStyle;rounded=0;orthogonalLoop=1;jettySize=auto;html=1;entryX=0;entryY=0.5;entryDx=0;entryDy=0;" parent="1" source="LKuy4wLW6eELK773XFHh-8" target="LKuy4wLW6eELK773XFHh-9" edge="1">
          <mxGeometry relative="1" as="geometry" />
        </mxCell>
        <mxCell id="LKuy4wLW6eELK773XFHh-8" value="主图提取" style="rounded=0;whiteSpace=wrap;html=1;" parent="1" vertex="1">
          <mxGeometry x="330" y="130" width="80" height="40" as="geometry" />
        </mxCell>
        <mxCell id="LKuy4wLW6eELK773XFHh-16" style="edgeStyle=orthogonalEdgeStyle;rounded=0;orthogonalLoop=1;jettySize=auto;html=1;entryX=0;entryY=0.5;entryDx=0;entryDy=0;" parent="1" source="LKuy4wLW6eELK773XFHh-9" target="LKuy4wLW6eELK773XFHh-10" edge="1">
          <mxGeometry relative="1" as="geometry" />
        </mxCell>
        <mxCell id="LKuy4wLW6eELK773XFHh-9" value="图片抓取" style="rounded=0;whiteSpace=wrap;html=1;" parent="1" vertex="1">
          <mxGeometry x="470" y="130" width="80" height="40" as="geometry" />
        </mxCell>
        <mxCell id="LKuy4wLW6eELK773XFHh-17" style="edgeStyle=orthogonalEdgeStyle;rounded=0;orthogonalLoop=1;jettySize=auto;html=1;entryX=0;entryY=0.5;entryDx=0;entryDy=0;" parent="1" source="LKuy4wLW6eELK773XFHh-10" target="LKuy4wLW6eELK773XFHh-11" edge="1">
          <mxGeometry relative="1" as="geometry" />
        </mxCell>
        <mxCell id="LKuy4wLW6eELK773XFHh-10" value="特征计算及质量过滤" style="rounded=0;whiteSpace=wrap;html=1;" parent="1" vertex="1">
          <mxGeometry x="590" y="130" width="80" height="40" as="geometry" />
        </mxCell>
        <mxCell id="LKuy4wLW6eELK773XFHh-18" style="edgeStyle=orthogonalEdgeStyle;rounded=0;orthogonalLoop=1;jettySize=auto;html=1;entryX=0;entryY=0.5;entryDx=0;entryDy=0;" parent="1" source="LKuy4wLW6eELK773XFHh-11" target="LKuy4wLW6eELK773XFHh-12" edge="1">
          <mxGeometry relative="1" as="geometry" />
        </mxCell>
        <mxCell id="LKuy4wLW6eELK773XFHh-11" value="图片裁剪" style="rounded=0;whiteSpace=wrap;html=1;" parent="1" vertex="1">
          <mxGeometry x="700" y="130" width="80" height="40" as="geometry" />
        </mxCell>
        <mxCell id="LKuy4wLW6eELK773XFHh-28" style="edgeStyle=orthogonalEdgeStyle;rounded=0;orthogonalLoop=1;jettySize=auto;html=1;entryX=0;entryY=0.5;entryDx=0;entryDy=0;" parent="1" source="LKuy4wLW6eELK773XFHh-12" target="LKuy4wLW6eELK773XFHh-24" edge="1">
          <mxGeometry relative="1" as="geometry" />
        </mxCell>
        <mxCell id="LKuy4wLW6eELK773XFHh-12" value="图片及其索引入库（mint）" style="rounded=0;whiteSpace=wrap;html=1;" parent="1" vertex="1">
          <mxGeometry x="820" y="130" width="80" height="40" as="geometry" />
        </mxCell>
        <mxCell id="LKuy4wLW6eELK773XFHh-20" value="&lt;font style=&quot;font-size: 18px&quot;&gt;出图系统&lt;/font&gt;" style="text;html=1;strokeColor=none;fillColor=none;align=center;verticalAlign=middle;whiteSpace=wrap;rounded=0;dashed=1;" parent="1" vertex="1">
          <mxGeometry x="530" y="40" width="90" height="30" as="geometry" />
        </mxCell>
        <mxCell id="LKuy4wLW6eELK773XFHh-22" value="gips" style="text;html=1;strokeColor=none;fillColor=none;align=center;verticalAlign=middle;whiteSpace=wrap;rounded=0;dashed=1;" parent="1" vertex="1">
          <mxGeometry x="430" y="70" width="60" height="30" as="geometry" />
        </mxCell>
        <mxCell id="LKuy4wLW6eELK773XFHh-23" value="" style="rounded=0;whiteSpace=wrap;html=1;dashed=1;" parent="1" vertex="1">
          <mxGeometry x="950" y="60" width="190" height="210" as="geometry" />
        </mxCell>
        <mxCell id="LKuy4wLW6eELK773XFHh-29" style="edgeStyle=orthogonalEdgeStyle;rounded=0;orthogonalLoop=1;jettySize=auto;html=1;entryX=0;entryY=0.5;entryDx=0;entryDy=0;" parent="1" source="LKuy4wLW6eELK773XFHh-24" target="LKuy4wLW6eELK773XFHh-25" edge="1">
          <mxGeometry relative="1" as="geometry" />
        </mxCell>
        <mxCell id="LKuy4wLW6eELK773XFHh-24" value="DISP" style="rounded=0;whiteSpace=wrap;html=1;" parent="1" vertex="1">
          <mxGeometry x="970" y="130" width="60" height="40" as="geometry" />
        </mxCell>
        <mxCell id="LKuy4wLW6eELK773XFHh-31" style="edgeStyle=orthogonalEdgeStyle;rounded=0;orthogonalLoop=1;jettySize=auto;html=1;entryX=0;entryY=0.5;entryDx=0;entryDy=0;" parent="1" source="LKuy4wLW6eELK773XFHh-25" target="LKuy4wLW6eELK773XFHh-30" edge="1">
          <mxGeometry relative="1" as="geometry" />
        </mxCell>
        <mxCell id="LKuy4wLW6eELK773XFHh-25" value="AC/US" style="rounded=0;whiteSpace=wrap;html=1;" parent="1" vertex="1">
          <mxGeometry x="1060" y="130" width="60" height="40" as="geometry" />
        </mxCell>
        <mxCell id="LKuy4wLW6eELK773XFHh-26" value="&lt;span style=&quot;color: rgb(0 , 0 , 0) ; font-family: &amp;#34;helvetica&amp;#34; ; font-style: normal ; font-weight: 400 ; letter-spacing: normal ; text-align: center ; text-indent: 0px ; text-transform: none ; word-spacing: 0px ; background-color: rgb(248 , 249 , 250) ; display: inline ; float: none&quot;&gt;&lt;font style=&quot;font-size: 18px&quot;&gt;下游：搜索架构&lt;/font&gt;&lt;/span&gt;" style="text;whiteSpace=wrap;html=1;" parent="1" vertex="1">
          <mxGeometry x="980" y="40" width="150" height="20" as="geometry" />
        </mxCell>
        <mxCell id="LKuy4wLW6eELK773XFHh-30" value="用户" style="rounded=0;whiteSpace=wrap;html=1;" parent="1" vertex="1">
          <mxGeometry x="1170" y="130" width="60" height="40" as="geometry" />
        </mxCell>
        <mxCell id="LKuy4wLW6eELK773XFHh-32" value="&lt;font color=&quot;#ff0000&quot;&gt;&lt;span style=&quot;font-size: 18px&quot;&gt;在线新通路&lt;/span&gt;&lt;/font&gt;" style="text;html=1;strokeColor=none;fillColor=none;align=center;verticalAlign=middle;whiteSpace=wrap;rounded=0;dashed=1;" parent="1" vertex="1">
          <mxGeometry x="980" y="270" width="125" height="20" as="geometry" />
        </mxCell>
        <mxCell id="azKWT2akUbq9BDtlPxRI-1" value="" style="rounded=0;whiteSpace=wrap;html=1;dashed=1;" vertex="1" parent="1">
          <mxGeometry x="320" y="510" width="930" height="210" as="geometry" />
        </mxCell>
        <mxCell id="azKWT2akUbq9BDtlPxRI-3" value="" style="rounded=0;whiteSpace=wrap;html=1;dashed=1;" vertex="1" parent="1">
          <mxGeometry x="80" y="510" width="170" height="210" as="geometry" />
        </mxCell>
        <mxCell id="azKWT2akUbq9BDtlPxRI-4" value="&lt;font style=&quot;font-size: 18px&quot;&gt;上游数据&lt;/font&gt;" style="text;html=1;strokeColor=none;fillColor=none;align=center;verticalAlign=middle;whiteSpace=wrap;rounded=0;dashed=1;" vertex="1" parent="1">
          <mxGeometry x="142.5" y="490" width="87.5" height="20" as="geometry" />
        </mxCell>
        <mxCell id="azKWT2akUbq9BDtlPxRI-6" value="&lt;ul&gt;&lt;li&gt;网页vip库&lt;/li&gt;&lt;li&gt;网页SE库&lt;/li&gt;&lt;li&gt;rts库&lt;/li&gt;&lt;li&gt;网页H5&lt;/li&gt;&lt;/ul&gt;" style="rounded=0;whiteSpace=wrap;html=1;align=left;" vertex="1" parent="1">
          <mxGeometry x="120" y="530" width="105" height="70" as="geometry" />
        </mxCell>
        <mxCell id="azKWT2akUbq9BDtlPxRI-8" value="&lt;ul&gt;&lt;li&gt;百家号&lt;/li&gt;&lt;li&gt;文库、百科等自有产品&lt;/li&gt;&lt;/ul&gt;" style="rounded=0;whiteSpace=wrap;html=1;align=left;" vertex="1" parent="1">
          <mxGeometry x="120" y="620" width="110" height="70" as="geometry" />
        </mxCell>
        <mxCell id="azKWT2akUbq9BDtlPxRI-9" value="已有数据库" style="text;html=1;strokeColor=none;fillColor=none;align=center;verticalAlign=middle;whiteSpace=wrap;rounded=0;" vertex="1" parent="1">
          <mxGeometry x="90" y="550" width="20" height="30" as="geometry" />
        </mxCell>
        <mxCell id="azKWT2akUbq9BDtlPxRI-10" value="结构化数据" style="text;html=1;strokeColor=none;fillColor=none;align=center;verticalAlign=middle;whiteSpace=wrap;rounded=0;" vertex="1" parent="1">
          <mxGeometry x="90" y="640" width="20" height="30" as="geometry" />
        </mxCell>
        <mxCell id="azKWT2akUbq9BDtlPxRI-12" value="主图提取策略（Page/DM）" style="rounded=0;whiteSpace=wrap;html=1;" vertex="1" parent="1">
          <mxGeometry x="360" y="640" width="80" height="40" as="geometry" />
        </mxCell>
        <mxCell id="azKWT2akUbq9BDtlPxRI-14" value="图片抓取" style="rounded=0;whiteSpace=wrap;html=1;" vertex="1" parent="1">
          <mxGeometry x="460" y="640" width="80" height="40" as="geometry" />
        </mxCell>
        <mxCell id="azKWT2akUbq9BDtlPxRI-16" value="特征计算" style="rounded=0;whiteSpace=wrap;html=1;" vertex="1" parent="1">
          <mxGeometry x="570" y="640" width="80" height="40" as="geometry" />
        </mxCell>
        <mxCell id="azKWT2akUbq9BDtlPxRI-18" value="图片裁剪" style="rounded=0;whiteSpace=wrap;html=1;" vertex="1" parent="1">
          <mxGeometry x="780" y="640" width="80" height="40" as="geometry" />
        </mxCell>
        <mxCell id="azKWT2akUbq9BDtlPxRI-20" value="图片及其索引入库（mint、SNDB）" style="rounded=0;whiteSpace=wrap;html=1;" vertex="1" parent="1">
          <mxGeometry x="1150" y="640" width="80" height="40" as="geometry" />
        </mxCell>
        <mxCell id="azKWT2akUbq9BDtlPxRI-21" value="&lt;font style=&quot;font-size: 18px&quot;&gt;出图系统&lt;/font&gt;" style="text;html=1;strokeColor=none;fillColor=none;align=center;verticalAlign=middle;whiteSpace=wrap;rounded=0;dashed=1;" vertex="1" parent="1">
          <mxGeometry x="760" y="490" width="90" height="30" as="geometry" />
        </mxCell>
        <mxCell id="azKWT2akUbq9BDtlPxRI-24" style="edgeStyle=orthogonalEdgeStyle;rounded=0;orthogonalLoop=1;jettySize=auto;html=1;entryX=0;entryY=0.5;entryDx=0;entryDy=0;" edge="1" parent="1" source="azKWT2akUbq9BDtlPxRI-25" target="azKWT2akUbq9BDtlPxRI-27">
          <mxGeometry relative="1" as="geometry" />
        </mxCell>
        <mxCell id="azKWT2akUbq9BDtlPxRI-25" value="DISP" style="rounded=0;whiteSpace=wrap;html=1;" vertex="1" parent="1">
          <mxGeometry x="1390" y="560" width="60" height="40" as="geometry" />
        </mxCell>
        <mxCell id="azKWT2akUbq9BDtlPxRI-27" value="AC/US" style="rounded=0;whiteSpace=wrap;html=1;" vertex="1" parent="1">
          <mxGeometry x="1490" y="560" width="60" height="40" as="geometry" />
        </mxCell>
        <mxCell id="azKWT2akUbq9BDtlPxRI-28" value="&lt;span style=&quot;color: rgb(0 , 0 , 0) ; font-family: &amp;#34;helvetica&amp;#34; ; font-style: normal ; font-weight: 400 ; letter-spacing: normal ; text-align: center ; text-indent: 0px ; text-transform: none ; word-spacing: 0px ; background-color: rgb(248 , 249 , 250) ; display: inline ; float: none&quot;&gt;&lt;font style=&quot;font-size: 18px&quot;&gt;下游：搜索架构&lt;/font&gt;&lt;/span&gt;" style="text;whiteSpace=wrap;html=1;" vertex="1" parent="1">
          <mxGeometry x="1410" y="480" width="150" height="20" as="geometry" />
        </mxCell>
        <mxCell id="azKWT2akUbq9BDtlPxRI-29" value="用户" style="rounded=0;whiteSpace=wrap;html=1;" vertex="1" parent="1">
          <mxGeometry x="1700" y="580" width="60" height="40" as="geometry" />
        </mxCell>
        <mxCell id="azKWT2akUbq9BDtlPxRI-30" value="&lt;font color=&quot;#ff0000&quot;&gt;&lt;span style=&quot;font-size: 18px&quot;&gt;在线新通路&lt;/span&gt;&lt;/font&gt;" style="text;html=1;strokeColor=none;fillColor=none;align=center;verticalAlign=middle;whiteSpace=wrap;rounded=0;dashed=1;" vertex="1" parent="1">
          <mxGeometry x="1412.5" y="720" width="125" height="20" as="geometry" />
        </mxCell>
        <mxCell id="azKWT2akUbq9BDtlPxRI-31" value="" style="endArrow=none;html=1;rounded=0;" edge="1" parent="1" target="azKWT2akUbq9BDtlPxRI-23">
          <mxGeometry width="50" height="50" relative="1" as="geometry">
            <mxPoint x="1360" y="680" as="sourcePoint" />
            <mxPoint x="1410" y="630" as="targetPoint" />
          </mxGeometry>
        </mxCell>
        <mxCell id="azKWT2akUbq9BDtlPxRI-32" value="" style="endArrow=none;html=1;rounded=0;" edge="1" parent="1" target="azKWT2akUbq9BDtlPxRI-23">
          <mxGeometry width="50" height="50" relative="1" as="geometry">
            <mxPoint x="1360" y="690" as="sourcePoint" />
            <mxPoint x="1410" y="640" as="targetPoint" />
          </mxGeometry>
        </mxCell>
        <mxCell id="azKWT2akUbq9BDtlPxRI-34" value="" style="endArrow=none;html=1;rounded=0;entryX=1;entryY=0.5;entryDx=0;entryDy=0;exitX=0;exitY=0.5;exitDx=0;exitDy=0;" edge="1" parent="1" source="azKWT2akUbq9BDtlPxRI-23" target="azKWT2akUbq9BDtlPxRI-23">
          <mxGeometry width="50" height="50" relative="1" as="geometry">
            <mxPoint x="1360" y="690" as="sourcePoint" />
            <mxPoint x="1410" y="640" as="targetPoint" />
          </mxGeometry>
        </mxCell>
        <mxCell id="azKWT2akUbq9BDtlPxRI-35" value="online 选图模块" style="rounded=0;whiteSpace=wrap;html=1;" vertex="1" parent="1">
          <mxGeometry x="1400" y="640" width="100" height="40" as="geometry" />
        </mxCell>
        <mxCell id="azKWT2akUbq9BDtlPxRI-36" value="&lt;font color=&quot;#ff0000&quot;&gt;&lt;span style=&quot;font-size: 18px&quot;&gt;旧的通路&lt;/span&gt;&lt;/font&gt;" style="text;html=1;strokeColor=none;fillColor=none;align=center;verticalAlign=middle;whiteSpace=wrap;rounded=0;dashed=1;" vertex="1" parent="1">
          <mxGeometry x="1410" y="520" width="125" height="20" as="geometry" />
        </mxCell>
        <mxCell id="azKWT2akUbq9BDtlPxRI-37" value="VUI" style="rounded=0;whiteSpace=wrap;html=1;" vertex="1" parent="1">
          <mxGeometry x="1560" y="640" width="60" height="40" as="geometry" />
        </mxCell>
        <mxCell id="azKWT2akUbq9BDtlPxRI-39" value="图片汇聚" style="rounded=0;whiteSpace=wrap;html=1;" vertex="1" parent="1">
          <mxGeometry x="890" y="640" width="80" height="40" as="geometry" />
        </mxCell>
        <mxCell id="azKWT2akUbq9BDtlPxRI-40" value="选图（优选）" style="rounded=0;whiteSpace=wrap;html=1;" vertex="1" parent="1">
          <mxGeometry x="1000" y="640" width="80" height="40" as="geometry" />
        </mxCell>
        <mxCell id="azKWT2akUbq9BDtlPxRI-41" value="cspub" style="rounded=0;whiteSpace=wrap;html=1;" vertex="1" parent="1">
          <mxGeometry x="460" y="560" width="80" height="40" as="geometry" />
        </mxCell>
        <mxCell id="azKWT2akUbq9BDtlPxRI-42" value="千仞" style="rounded=0;whiteSpace=wrap;html=1;" vertex="1" parent="1">
          <mxGeometry x="570" y="560" width="80" height="40" as="geometry" />
        </mxCell>
        <mxCell id="azKWT2akUbq9BDtlPxRI-43" value="选图（过滤）" style="rounded=0;whiteSpace=wrap;html=1;" vertex="1" parent="1">
          <mxGeometry x="680" y="640" width="80" height="40" as="geometry" />
        </mxCell>
        <mxCell id="azKWT2akUbq9BDtlPxRI-44" value="选图系统" style="rounded=0;whiteSpace=wrap;html=1;" vertex="1" parent="1">
          <mxGeometry x="680" y="560" width="80" height="40" as="geometry" />
        </mxCell>
        <mxCell id="azKWT2akUbq9BDtlPxRI-45" value="GIPS" style="rounded=0;whiteSpace=wrap;html=1;" vertex="1" parent="1">
          <mxGeometry x="780" y="560" width="80" height="40" as="geometry" />
        </mxCell>
        <mxCell id="azKWT2akUbq9BDtlPxRI-46" value="重试" style="rounded=0;whiteSpace=wrap;html=1;" vertex="1" parent="1">
          <mxGeometry x="890" y="560" width="80" height="40" as="geometry" />
        </mxCell>
        <mxCell id="azKWT2akUbq9BDtlPxRI-47" value="选图系统" style="rounded=0;whiteSpace=wrap;html=1;" vertex="1" parent="1">
          <mxGeometry x="1002.5" y="560" width="80" height="40" as="geometry" />
        </mxCell>
      </root>
    </mxGraphModel>
  </diagram>
</mxfile>
